<?xml version="1.0" ?><svg viewBox="0 0 512 512" xmlns="http://www.w3.org/2000/svg"><title/><g data-name="1" id="_1"><path d="M365.89,450H137a50.17,50.17,0,0,1-50.11-50.11V98.11A50.17,50.17,0,0,1,137,48h150.1a15,15,0,0,1,10.61,4.39L411.61,166.27A15,15,0,0,1,416,176.88v223A50.17,50.17,0,0,1,365.89,450ZM137,78a20.13,20.13,0,0,0-20.11,20.11V399.89A20.13,20.13,0,0,0,137,420H365.89A20.13,20.13,0,0,0,386,399.89V183.09L280.91,78Z"/><path d="M401,191.88H322.23a50.17,50.17,0,0,1-50.11-50.11V63a15,15,0,0,1,30,0v78.77a20.13,20.13,0,0,0,20.11,20.11H401a15,15,0,0,1,0,30Z"/><path d="M231.08,400.34A43.39,43.39,0,0,1,187.74,357V253.45a63.72,63.72,0,1,1,127.43,0v89.77a15,15,0,0,1-30,0V253.45a33.72,33.72,0,1,0-67.43,0V357a13.35,13.35,0,0,0,26.69,0V255.58a15,15,0,1,1,30,0V357A43.39,43.39,0,0,1,231.08,400.34Z"/></g></svg>