<svg width="52" height="37" viewBox="0 0 52 37" fill="none" xmlns="http://www.w3.org/2000/svg">
<path d="M7.32643 29.8035C6.55386 31.3446 6.63557 33.176 7.54557 34.6412C8.45557 36.1083 10.062 37 11.7929 37H11.7947C13.6723 37 15.3883 35.9436 16.2277 34.2712C18.044 30.6508 21.1287 24.5051 22.0313 22.7088C22.1984 22.3739 22.2857 22.0058 22.2857 21.632C22.2857 18.883 22.2857 6.89125 22.2857 2.04425C22.2857 1.5022 22.0703 0.982349 21.6859 0.599399C21.2996 0.216449 20.7777 0 20.2336 0C15.9919 0 6.29572 0 2.05214 0C1.508 0 0.986144 0.216449 0.601715 0.599399C0.217286 0.982349 0 1.5022 0 2.04425C0 6.2715 0 15.9303 0 20.1557C0 21.2842 0.919287 22.2 2.05214 22.2C5.27057 22.2 11.1429 22.2 11.1429 22.2C11.1429 22.2 9.217 26.0369 7.32643 29.8035V29.8035ZM37.0407 29.8035C36.2681 31.3446 36.3499 33.176 37.2599 34.6412C38.1699 36.1083 39.7763 37 41.5071 37H41.509C43.3866 37 45.1026 35.9436 45.942 34.2712C47.7583 30.6508 50.843 24.5051 51.7456 22.7088C51.9127 22.3739 52 22.0058 52 21.632C52 18.883 52 6.89125 52 2.04425C52 1.5022 51.7846 0.982349 51.4001 0.599399C51.0139 0.216449 50.492 0 49.9479 0C45.7061 0 36.01 0 31.7664 0C31.2223 0 30.7004 0.216449 30.316 0.599399C29.9316 0.982349 29.7143 1.5022 29.7143 2.04425C29.7143 6.2715 29.7143 15.9303 29.7143 20.1557C29.7143 21.2842 30.6336 22.2 31.7664 22.2C34.9849 22.2 40.8571 22.2 40.8571 22.2C40.8571 22.2 38.9313 26.0369 37.0407 29.8035V29.8035Z" fill="black"/>
</svg>
