<svg width="83" height="83" viewBox="0 0 83 83" fill="none" xmlns="http://www.w3.org/2000/svg">
<path fill-rule="evenodd" clip-rule="evenodd" d="M22.6364 7.54545H60.3636C60.3636 7.54545 60.3636 5.33275 60.3636 3.30491C60.3636 1.47891 61.8425 0 63.6667 0C67.9581 0 75.4036 0 79.6951 0C81.5192 0 83 1.47891 83 3.30491C83 7.5945 83 15.0419 83 19.3333C83 21.1575 81.5192 22.6364 79.6951 22.6364C77.6673 22.6364 75.4545 22.6364 75.4545 22.6364V60.3636C75.4545 60.3636 77.6673 60.3636 79.6951 60.3636C81.5192 60.3636 83 61.8425 83 63.6685C83 67.9581 83 75.4055 83 79.697C83 81.5211 81.5192 83 79.6951 83C75.4036 83 67.9581 83 63.6667 83C61.8425 83 60.3636 81.5211 60.3636 79.697C60.3636 77.6673 60.3636 75.4545 60.3636 75.4545H22.6364C22.6364 75.4545 22.6364 77.6673 22.6364 79.697C22.6364 81.5211 21.1556 83 19.3315 83C15.04 83 7.5945 83 3.30302 83C1.47891 83 0 81.5211 0 79.697C0 75.4055 0 67.9581 0 63.6685C0 61.8425 1.47891 60.3636 3.30302 60.3636C5.33275 60.3636 7.54545 60.3636 7.54545 60.3636V22.6364C7.54545 22.6364 5.33275 22.6364 3.30302 22.6364C1.47891 22.6364 0 21.1575 0 19.3333C0 15.0419 0 7.5945 0 3.30491C0 1.47891 1.47891 0 3.30302 0C7.5945 0 15.04 0 19.3315 0C21.1556 0 22.6364 1.47891 22.6364 3.30491C22.6364 5.33275 22.6364 7.54545 22.6364 7.54545V7.54545ZM15.0909 75.4545V67.9091H7.54545V75.4545H15.0909ZM75.4545 75.4545V67.9091H67.9091V75.4545H75.4545ZM63.6667 22.6364C61.8425 22.6364 60.3636 21.1575 60.3636 19.3333C60.3636 17.3036 60.3636 15.0909 60.3636 15.0909H22.6364C22.6364 15.0909 22.6364 17.3036 22.6364 19.3333C22.6364 21.1575 21.1556 22.6364 19.3315 22.6364C17.3036 22.6364 15.0909 22.6364 15.0909 22.6364V60.3636C15.0909 60.3636 17.3036 60.3636 19.3315 60.3636C21.1556 60.3636 22.6364 61.8425 22.6364 63.6685C22.6364 65.6964 22.6364 67.9091 22.6364 67.9091H60.3636C60.3636 67.9091 60.3636 65.6964 60.3636 63.6685C60.3636 61.8425 61.8425 60.3636 63.6667 60.3636C65.6964 60.3636 67.9091 60.3636 67.9091 60.3636V22.6364C67.9091 22.6364 65.6964 22.6364 63.6667 22.6364ZM55.4968 52.7088C55.8307 53.5897 55.71 54.5782 55.1743 55.3535C54.6385 56.1287 53.7576 56.5909 52.8144 56.5909C51.6147 56.5909 50.5413 55.8439 50.1245 54.7196C49.2982 52.4843 48.0268 49.0455 48.0268 49.0455H34.86C34.86 49.0455 33.6018 52.4918 32.785 54.7272C32.3775 55.8458 31.3118 56.5909 30.1215 56.5909C30.1196 56.5909 30.1196 56.5909 30.1196 56.5909C29.1839 56.5909 28.3068 56.1306 27.7729 55.361C27.241 54.5895 27.1202 53.6067 27.4522 52.7314C30.1101 45.6934 35.6749 30.9628 37.8857 25.1094C38.4479 23.621 39.874 22.6364 41.4642 22.6364C41.466 22.6364 41.466 22.6364 41.466 22.6364C43.0525 22.6364 44.4748 23.6173 45.0369 25.1018C47.2496 30.942 52.8257 45.6575 55.4968 52.7088V52.7088ZM36.5577 44.2918H46.4045L41.5 29.8423L36.5577 44.2918V44.2918ZM15.0909 15.0909V7.54545H7.54545V15.0909H15.0909ZM75.4545 15.0909V7.54545H67.9091V15.0909H75.4545Z" fill="black"/>
</svg>
