<svg width="64" height="75" viewBox="0 0 64 75" fill="none" xmlns="http://www.w3.org/2000/svg">
<path fill-rule="evenodd" clip-rule="evenodd" d="M52.7059 18.75C52.7059 20.8125 51.0118 22.5 48.9412 22.5H3.7647C1.69412 22.5 0 20.8125 0 18.75V3.75C0 1.6875 1.69412 0 3.7647 0H48.9412C51.0118 0 52.7059 1.6875 52.7059 3.75V7.5C52.7059 7.5 57.2405 7.5 60.5628 7.5C62.4602 7.5 64 9.03375 64 10.9256C64 16.6988 64 28.3013 64 34.0744C64 35.9663 62.4602 37.5 60.5628 37.5C52.6607 37.5 33.8824 37.5 33.8824 37.5V71.25C33.8824 73.3125 32.1882 75 30.1176 75H22.5882C20.5176 75 18.8235 73.3125 18.8235 71.25C18.8235 71.25 18.8235 43.32 18.8235 33.4256C18.8235 31.5337 20.3633 30 22.2626 30C31.5539 30 56.4706 30 56.4706 30V15H52.7059V18.75V18.75Z" fill="black"/>
</svg>
