<?xml version="1.0" ?><!DOCTYPE svg  PUBLIC '-//W3C//DTD SVG 1.1//EN'  'http://www.w3.org/Graphics/SVG/1.1/DTD/svg11.dtd'><svg height="100%" style="fill-rule:evenodd;clip-rule:evenodd;stroke-linejoin:round;stroke-miterlimit:1.41421;" version="1.1" viewBox="0 0 49 49" width="100%" xml:space="preserve" xmlns="http://www.w3.org/2000/svg" xmlns:serif="http://www.serif.com/" xmlns:xlink="http://www.w3.org/1999/xlink"><path d="M14.725,30.559c-0.416,0.833 -0.372,1.823 0.118,2.615c0.49,0.793 1.355,1.275 2.287,1.275c0,0 0.001,0 0.001,0c1.011,0 1.935,-0.571 2.387,-1.475c0.978,-1.957 2.639,-5.279 3.125,-6.25c0.09,-0.181 0.137,-0.38 0.137,-0.582c0,-1.486 0,-7.968 0,-10.588c0,-0.293 -0.116,-0.574 -0.323,-0.781c-0.208,-0.207 -0.489,-0.324 -0.782,-0.324c-2.284,0 -7.505,0 -9.79,0c-0.293,0 -0.574,0.117 -0.781,0.324c-0.207,0.207 -0.324,0.488 -0.324,0.781c0,2.285 0,7.506 0,9.79c0,0.61 0.495,1.105 1.105,1.105c1.733,0 4.895,0 4.895,0c0,0 -1.037,2.074 -2.055,4.11Zm16,0c-0.416,0.833 -0.372,1.823 0.118,2.615c0.49,0.793 1.355,1.275 2.287,1.275c0,0 0.001,0 0.001,0c1.011,0 1.935,-0.571 2.387,-1.475c0.978,-1.957 2.639,-5.279 3.125,-6.25c0.09,-0.181 0.137,-0.38 0.137,-0.582c0,-1.486 0,-7.968 0,-10.588c0,-0.293 -0.116,-0.574 -0.323,-0.781c-0.208,-0.207 -0.489,-0.324 -0.782,-0.324c-2.284,0 -7.505,0 -9.79,0c-0.293,0 -0.574,0.117 -0.781,0.324c-0.207,0.207 -0.324,0.488 -0.324,0.781c0,2.285 0,7.506 0,9.79c0,0.61 0.495,1.105 1.105,1.105c1.733,0 4.895,0 4.895,0c0,0 -1.037,2.074 -2.055,4.11Z" style="fill:#f6ac00;fill-rule:nonzero;"/><rect height="48" style="fill:none;" width="48" x="0.78" y="0.449"/></svg>