<?xml version="1.0" ?><!DOCTYPE svg  PUBLIC '-//W3C//DTD SVG 1.1//EN'  'http://www.w3.org/Graphics/SVG/1.1/DTD/svg11.dtd'><svg height="100%" style="fill-rule:evenodd;clip-rule:evenodd;stroke-linejoin:round;stroke-miterlimit:1.41421;" version="1.1" viewBox="0 0 49 49" width="100%" xml:space="preserve" xmlns="http://www.w3.org/2000/svg" xmlns:serif="http://www.serif.com/" xmlns:xlink="http://www.w3.org/1999/xlink"><path d="M14.163,6.087l20,0c0,0 0,-1.173 0,-2.248c0,-0.968 0.784,-1.752 1.751,-1.752c2.275,0 6.222,0 8.497,0c0.967,0 1.752,0.784 1.752,1.752c0,2.274 0,6.222 0,8.497c0,0.967 -0.785,1.751 -1.752,1.751c-1.075,0 -2.248,0 -2.248,0l0,20c0,0 1.173,0 2.248,0c0.967,0 1.752,0.784 1.752,1.752c0,2.274 0,6.222 0,8.497c0,0.967 -0.785,1.751 -1.752,1.751c-2.275,0 -6.222,0 -8.497,0c-0.967,0 -1.751,-0.784 -1.751,-1.751c0,-1.076 0,-2.249 0,-2.249l-20,0c0,0 0,1.173 0,2.249c0,0.967 -0.785,1.751 -1.752,1.751c-2.275,0 -6.222,0 -8.497,0c-0.967,0 -1.751,-0.784 -1.751,-1.751c0,-2.275 0,-6.223 0,-8.497c0,-0.968 0.784,-1.752 1.751,-1.752c1.076,0 2.249,0 2.249,0l0,-20c0,0 -1.173,0 -2.249,0c-0.967,0 -1.751,-0.784 -1.751,-1.751c0,-2.275 0,-6.223 0,-8.497c0,-0.968 0.784,-1.752 1.751,-1.752c2.275,0 6.222,0 8.497,0c0.967,0 1.752,0.784 1.752,1.752c0,1.075 0,2.248 0,2.248Zm-4,36l0,-4l-4,0l0,4l4,0Zm32,0l0,-4l-4,0l0,4l4,0Zm-6.249,-28c-0.967,0 -1.751,-0.784 -1.751,-1.751c0,-1.076 0,-2.249 0,-2.249l-20,0c0,0 0,1.173 0,2.249c0,0.967 -0.785,1.751 -1.752,1.751c-1.075,0 -2.248,0 -2.248,0l0,20c0,0 1.173,0 2.248,0c0.967,0 1.752,0.784 1.752,1.752c0,1.075 0,2.248 0,2.248l20,0c0,0 0,-1.173 0,-2.248c0,-0.968 0.784,-1.752 1.751,-1.752c1.076,0 2.249,0 2.249,0l0,-20c0,0 -1.173,0 -2.249,0Zm-4.331,15.942c0.177,0.467 0.113,0.991 -0.171,1.402c-0.284,0.411 -0.751,0.656 -1.251,0.656c0,0 0,0 0,0c-0.636,0 -1.205,-0.396 -1.426,-0.992c-0.438,-1.185 -1.112,-3.008 -1.112,-3.008l-6.98,0c0,0 -0.667,1.827 -1.1,3.012c-0.216,0.593 -0.781,0.988 -1.412,0.988c-0.001,0 -0.001,0 -0.001,0c-0.496,0 -0.961,-0.244 -1.244,-0.652c-0.282,-0.409 -0.346,-0.93 -0.17,-1.394c1.409,-3.731 4.359,-11.54 5.531,-14.643c0.298,-0.789 1.054,-1.311 1.897,-1.311c0.001,0 0.001,0 0.001,0c0.841,0 1.595,0.52 1.893,1.307c1.173,3.096 4.129,10.897 5.545,14.635Zm-10.04,-4.462l5.22,0l-2.6,-7.66l-2.62,7.66Zm-11.38,-15.48l0,-4l-4,0l0,4l4,0Zm32,0l0,-4l-4,0l0,4l4,0Z" style="fill:#f6ac02;"/><rect height="48" style="fill:none;" width="48" x="0.163" y="0.087"/></svg>