<?xml version="1.0" ?><svg viewBox="0 0 512 512" xmlns="http://www.w3.org/2000/svg"><title/><g data-name="1" id="_1"><path d="M361.43,450H132.56a50.17,50.17,0,0,1-50.11-50.11V98.11A50.17,50.17,0,0,1,132.56,48h150.1a15,15,0,0,1,10.61,4.39L407.15,166.27a15,15,0,0,1,4.39,10.61v223A50.17,50.17,0,0,1,361.43,450ZM132.56,78a20.13,20.13,0,0,0-20.11,20.11V399.89A20.13,20.13,0,0,0,132.56,420H361.43a20.13,20.13,0,0,0,20.11-20.11V183.09L276.45,78Z"/><path d="M396.54,191.88H317.77a50.17,50.17,0,0,1-50.11-50.11V63a15,15,0,0,1,30,0v78.77a20.13,20.13,0,0,0,20.11,20.11h78.77a15,15,0,1,1,0,30Z"/><path d="M210.2,279.14c-4,0-6.22-4.23-6.22-9.13,0-4.23,1.85-8.87,6.22-8.87h23.16c4.5,0,9,2.12,9,6.36v60c0,22.77-14.42,31.24-31.76,31.24-18.93,0-33.23-10.06-33.23-27.67,0-7.94,3.31-9.79,10.46-9.79,5.29,0,9.79,1.32,10.19,6.22.4,5.16,1.06,13.24,11.65,13.24,7.68,0,12.05-4.24,12.05-13.24V279.14Z"/><path d="M296,332c0-16-42-13.24-42-44.21,0-19.86,17.34-27.4,33.89-27.4,7,0,26.34,1.32,26.34,11.65,0,3.57-2.38,10.85-8.21,10.85-4.76,0-7.28-5-18.13-5-9.4,0-13.24,3.84-13.24,7.94,0,13.24,42,10.73,42,44.08,0,19.06-13.9,29.39-33.09,29.39-17.34,0-31.9-8.47-31.9-17.21,0-4.5,4-11.12,9-11.12,6.22,0,10.19,9.8,22.5,9.8C289.22,340.7,296,338.31,296,332Z"/></g></svg>