<?xml version="1.0" ?><!DOCTYPE svg  PUBLIC '-//W3C//DTD SVG 1.1//EN'  'http://www.w3.org/Graphics/SVG/1.1/DTD/svg11.dtd'><svg height="100%" style="fill-rule:evenodd;clip-rule:evenodd;stroke-linejoin:round;stroke-miterlimit:1.41421;" version="1.1" viewBox="0 0 49 49" width="100%" xml:space="preserve" xmlns="http://www.w3.org/2000/svg" xmlns:serif="http://www.serif.com/" xmlns:xlink="http://www.w3.org/1999/xlink"><path d="M35.421,14.114c0,1.1 -0.9,2 -2,2l-24,0c-1.1,0 -2,-0.9 -2,-2l0,-8c0,-1.1 0.9,-2 2,-2l24,0c1.1,0 2,0.9 2,2l0,2c0,0 2.409,0 4.174,0c1.008,0 1.826,0.818 1.826,1.827c0,3.079 0,9.267 0,12.346c0,1.009 -0.818,1.827 -1.826,1.827c-4.198,0 -14.174,0 -14.174,0l0,18c0,1.1 -0.9,2 -2,2l-4,0c-1.1,0 -2,-0.9 -2,-2c0,0 0,-14.896 0,-20.173c0,-1.009 0.818,-1.827 1.827,-1.827c4.936,0 18.173,0 18.173,0l0,-8l-2,0l0,2Z" style="fill:#f6ac00;"/><rect height="48" style="fill:none;" width="48" x="0.421" y="0.114"/></svg>