<?xml version="1.0" ?><svg viewBox="0 0 512 512" xmlns="http://www.w3.org/2000/svg"><title/><g data-name="1" id="_1"><path d="M361.43,450H132.56a50.17,50.17,0,0,1-50.11-50.11V98.11A50.17,50.17,0,0,1,132.56,48h150.1a15,15,0,0,1,10.61,4.39L407.15,166.27a15,15,0,0,1,4.39,10.61v223A50.17,50.17,0,0,1,361.43,450ZM132.56,78a20.13,20.13,0,0,0-20.11,20.11V399.89A20.13,20.13,0,0,0,132.56,420H361.43a20.13,20.13,0,0,0,20.11-20.11V183.09L276.45,78Z"/><path d="M396.54,191.88H317.77a50.17,50.17,0,0,1-50.11-50.11V63a15,15,0,0,1,30,0v78.77a20.13,20.13,0,0,0,20.11,20.11h78.77a15,15,0,1,1,0,30Z"/><path d="M182.8,332c0-16-42-13.24-42-44.21,0-19.86,17.34-27.4,33.88-27.4,7,0,26.35,1.32,26.35,11.65,0,3.57-2.39,10.85-8.21,10.85-4.77,0-7.28-5-18.14-5-9.39,0-13.23,3.84-13.23,7.94,0,13.24,42,10.73,42,44.08,0,19.06-13.9,29.39-33.09,29.39-17.34,0-31.9-8.47-31.9-17.21,0-4.5,4-11.12,9-11.12,6.22,0,10.19,9.8,22.5,9.8C176.05,340.7,182.8,338.31,182.8,332Z"/><path d="M207.29,271.07a6.43,6.43,0,0,1-.27-1.46c0-4.89,7.55-8.47,13.24-8.47,3.31,0,6,1.06,6.75,3.84l18.53,67.91L263.94,265c.79-2.78,3.44-3.84,6.75-3.84,5.69,0,13.24,3.58,13.24,8.47a6.43,6.43,0,0,1-.27,1.46L259,351.82c-1.45,4.63-7.41,6.88-13.5,6.88s-12-2.25-13.5-6.88Z"/><path d="M323.11,279.14c-7.55,0-11.92,4.24-11.92,13.24v35.08c0,9,4.37,13.24,11.78,13.24s11.92-4.24,11.92-13.24V323h-7.81c-4,0-6.22-3.84-6.22-7.94,0-3.84,2.25-7.95,6.22-7.95h22.24c4,0,6.22,3.05,6.22,6.49v13.9c0,22.77-14.3,31.24-32.57,31.24s-32.43-8.47-32.43-31.24V292.38c0-22.77,14.43-31.24,31.77-31.24,18.93,0,33.23,9.53,33.23,26.34,0,7.95-3.31,9.8-10.33,9.8-5.56,0-10.19-1.46-10.32-6.22S334.36,279.14,323.11,279.14Z"/></g></svg>