<svg width="70" height="85" viewBox="0 0 70 85" fill="none" xmlns="http://www.w3.org/2000/svg">
<path d="M59.2392 84.9219H10.9619C8.15959 84.9185 5.473 83.8038 3.49145 81.8223C1.5099 79.8407 0.395195 77.1541 0.391846 74.3518V10.6951C0.395195 7.89275 1.5099 5.20615 3.49145 3.2246C5.473 1.24306 8.15959 0.12835 10.9619 0.125H42.6236C43.0392 0.124812 43.4508 0.206494 43.8348 0.365382C44.2188 0.52427 44.5677 0.75725 44.8617 1.05102L68.8832 25.0726C69.177 25.3665 69.41 25.7155 69.5689 26.0995C69.7278 26.4835 69.8094 26.895 69.8093 27.3106V74.3497C69.8065 77.1524 68.692 79.8395 66.7104 81.8215C64.7288 83.8035 62.0419 84.9185 59.2392 84.9219ZM10.9619 6.45313C9.83723 6.45424 8.75892 6.90152 7.96364 7.6968C7.16837 8.49208 6.72109 9.57038 6.71997 10.6951V74.3518C6.72109 75.4765 7.16837 76.5548 7.96364 77.3501C8.75892 78.1454 9.83723 78.5926 10.9619 78.5938H59.2392C60.3639 78.5926 61.4422 78.1454 62.2375 77.3501C63.0327 76.5548 63.48 75.4765 63.4811 74.3518V28.6205L41.3137 6.45313H10.9619Z" fill="white"/>
<path d="M66.6451 30.4747H50.0295C47.2272 30.4713 44.5406 29.3566 42.5591 27.3751C40.5775 25.3935 39.4628 22.7069 39.4595 19.9046V3.28906C39.4595 2.4499 39.7928 1.64511 40.3862 1.05173C40.9796 0.458356 41.7844 0.125 42.6235 0.125C43.4627 0.125 44.2675 0.458356 44.8609 1.05173C45.4542 1.64511 45.7876 2.4499 45.7876 3.28906V19.9046C45.7887 21.0293 46.236 22.1076 47.0313 22.9029C47.8265 23.6982 48.9049 24.1454 50.0295 24.1466H66.6451C67.4843 24.1466 68.289 24.4799 68.8824 25.0733C69.4758 25.6667 69.8092 26.4715 69.8092 27.3106C69.8092 28.1498 69.4758 28.9546 68.8824 29.548C68.289 30.1413 67.4843 30.4747 66.6451 30.4747Z" fill="white"/>
<path d="M27.3391 48.881C26.4954 48.881 26.0271 47.9887 26.0271 46.9551C26.0271 46.0629 26.4173 45.0841 27.3391 45.0841H32.2245C33.1737 45.0841 34.1229 45.5313 34.1229 46.4257V59.0819C34.1229 63.885 31.0812 65.6716 27.4235 65.6716C23.4305 65.6716 20.4141 63.5496 20.4141 59.835C20.4141 58.1601 21.1123 57.7699 22.6205 57.7699C23.7363 57.7699 24.6855 58.0483 24.7699 59.0819C24.8543 60.1704 24.9935 61.8747 27.2273 61.8747C28.8473 61.8747 29.7691 60.9803 29.7691 59.0819V48.881H27.3391Z" fill="white"/>
<path d="M45.4374 60.0311C45.4374 56.6561 36.5781 57.2383 36.5781 50.7056C36.5781 46.5164 40.2357 44.9259 43.7267 44.9259C45.2033 44.9259 49.2828 45.2043 49.2828 47.3833C49.2828 48.1364 48.7808 49.672 47.551 49.672C46.547 49.672 46.0154 48.6173 43.7267 48.6173C41.7439 48.6173 40.9339 49.4273 40.9339 50.2921C40.9339 53.085 49.7933 52.5555 49.7933 59.5903C49.7933 63.6107 46.8613 65.7897 42.8134 65.7897C39.1557 65.7897 36.0845 64.0031 36.0845 62.1595C36.0845 61.2103 36.9282 59.8139 37.9829 59.8139C39.2949 59.8139 40.1324 61.8811 42.729 61.8811C44.0073 61.8663 45.4374 61.3621 45.4374 60.0311Z" fill="white"/>
</svg>
