<svg width="70" height="85" viewBox="0 0 70 85" fill="none" xmlns="http://www.w3.org/2000/svg">
<path d="M59.1799 84.9219H10.8985C8.09612 84.9185 5.40952 83.8038 3.42797 81.8223C1.44643 79.8407 0.331719 77.1541 0.328369 74.3518V10.6951C0.331719 7.89275 1.44643 5.20615 3.42797 3.2246C5.40952 1.24306 8.09612 0.12835 10.8985 0.125H42.5602C42.9758 0.124812 43.3873 0.206494 43.7713 0.365382C44.1553 0.52427 44.5043 0.75725 44.7982 1.05102L68.824 25.0726C69.1178 25.3665 69.3508 25.7155 69.5096 26.0995C69.6685 26.4835 69.7502 26.895 69.75 27.3106V74.3497C69.7472 77.1524 68.6328 79.8395 66.6512 81.8215C64.6696 83.8035 61.9826 84.9185 59.1799 84.9219ZM10.8985 6.45313C9.77376 6.45424 8.69545 6.90152 7.90017 7.6968C7.10489 8.49208 6.65761 9.57038 6.6565 10.6951V74.3518C6.65761 75.4765 7.10489 76.5548 7.90017 77.3501C8.69545 78.1454 9.77376 78.5926 10.8985 78.5938H59.1799C60.3046 78.5926 61.3829 78.1454 62.1782 77.3501C62.9735 76.5548 63.4208 75.4765 63.4219 74.3518V28.6205L41.2545 6.45313H10.8985Z" fill="white"/>
<path d="M66.586 30.4747H49.9705C47.1681 30.4713 44.4815 29.3566 42.5 27.3751C40.5184 25.3935 39.4037 22.7069 39.4004 19.9046V3.28906C39.4004 2.4499 39.7337 1.64511 40.3271 1.05173C40.9205 0.458356 41.7253 0.125 42.5645 0.125C43.4036 0.125 44.2084 0.458356 44.8018 1.05173C45.3952 1.64511 45.7285 2.4499 45.7285 3.28906V19.9046C45.7296 21.0293 46.1769 22.1076 46.9722 22.9029C47.7675 23.6982 48.8458 24.1454 49.9705 24.1466H66.586C67.4252 24.1466 68.23 24.4799 68.8233 25.0733C69.4167 25.6667 69.7501 26.4715 69.7501 27.3106C69.7501 28.1498 69.4167 28.9546 68.8233 29.548C68.23 30.1413 67.4252 30.4747 66.586 30.4747Z" fill="white"/>
<path d="M30.7434 74.4468C28.3197 74.444 25.996 73.48 24.2821 71.7661C22.5683 70.0522 21.6042 67.7286 21.6014 65.3048V43.4622C21.5791 41.6831 21.9103 39.9173 22.5757 38.2671C23.2411 36.617 24.2275 35.1154 25.4778 33.8494C26.728 32.5834 28.2171 31.5782 29.8588 30.8922C31.5005 30.2062 33.262 29.8529 35.0413 29.8529C36.8205 29.8529 38.5821 30.2062 40.2238 30.8922C41.8654 31.5782 43.3546 32.5834 44.6048 33.8494C45.855 35.1154 46.8414 36.617 47.5069 38.2671C48.1723 39.9173 48.5034 41.6831 48.4812 43.4622V62.3981C48.4812 63.2372 48.1478 64.042 47.5544 64.6354C46.961 65.2288 46.1563 65.5621 45.3171 65.5621C44.4779 65.5621 43.6731 65.2288 43.0798 64.6354C42.4864 64.042 42.153 63.2372 42.153 62.3981V43.4622C42.1693 42.518 41.9974 41.58 41.6473 40.7029C41.2972 39.8258 40.7759 39.0272 40.1139 38.3537C39.4519 37.6802 38.6624 37.1453 37.7915 36.7801C36.9206 36.415 35.9856 36.2269 35.0413 36.2269C34.0969 36.2269 33.162 36.415 32.2911 36.7801C31.4201 37.1453 30.6306 37.6802 29.9686 38.3537C29.3066 39.0272 28.7854 39.8258 28.4353 40.7029C28.0852 41.58 27.9133 42.518 27.9295 43.4622V65.3048C27.9496 66.038 28.255 66.7345 28.7807 67.246C29.3064 67.7575 30.011 68.0437 30.7445 68.0437C31.478 68.0437 32.1825 67.7575 32.7083 67.246C33.234 66.7345 33.5394 66.038 33.5594 65.3048V43.9115C33.5594 43.0724 33.8928 42.2676 34.4862 41.6742C35.0795 41.0808 35.8843 40.7475 36.7235 40.7475C37.5627 40.7475 38.3674 41.0808 38.9608 41.6742C39.5542 42.2676 39.8876 43.0724 39.8876 43.9115V65.3048C39.8848 67.7289 38.9204 70.0529 37.2061 71.7668C35.4918 73.4808 33.1675 74.4446 30.7434 74.4468Z" fill="white"/>
</svg>
