<svg width="70" height="85" viewBox="0 0 70 85" fill="none" xmlns="http://www.w3.org/2000/svg">
<path d="M59.3486 84.9219H11.0713C8.26897 84.9185 5.58237 83.8038 3.60082 81.8223C1.61928 79.8407 0.50457 77.1541 0.501221 74.3518V10.6951C0.50457 7.89275 1.61928 5.20615 3.60082 3.2246C5.58237 1.24306 8.26897 0.12835 11.0713 0.125H42.733C43.1486 0.124812 43.5602 0.206494 43.9442 0.365382C44.3282 0.52427 44.6771 0.75725 44.9711 1.05102L68.9926 25.0726C69.2864 25.3665 69.5194 25.7155 69.6783 26.0995C69.8372 26.4835 69.9188 26.895 69.9186 27.3106V74.3497C69.9159 77.1524 68.8014 79.8395 66.8198 81.8215C64.8382 83.8035 62.1513 84.9185 59.3486 84.9219ZM11.0713 6.45313C9.94661 6.45424 8.8683 6.90152 8.07302 7.6968C7.27774 8.49208 6.83046 9.57038 6.82935 10.6951V74.3518C6.83046 75.4765 7.27774 76.5548 8.07302 77.3501C8.8683 78.1454 9.94661 78.5926 11.0713 78.5938H59.3486C60.4733 78.5926 61.5516 78.1454 62.3468 77.3501C63.1421 76.5548 63.5894 75.4765 63.5905 74.3518V28.6205L41.4231 6.45313H11.0713Z" fill="white"/>
<path d="M66.7545 30.4747H50.1389C47.3366 30.4713 44.65 29.3566 42.6685 27.3751C40.6869 25.3935 39.5722 22.7069 39.5688 19.9046V3.28906C39.5688 2.4499 39.9022 1.64511 40.4956 1.05173C41.089 0.458356 41.8938 0.125 42.7329 0.125C43.5721 0.125 44.3769 0.458356 44.9702 1.05173C45.5636 1.64511 45.897 2.4499 45.897 3.28906V19.9046C45.8981 21.0293 46.3454 22.1076 47.1407 22.9029C47.9359 23.6982 49.0142 24.1454 50.1389 24.1466H66.7545C67.5937 24.1466 68.3984 24.4799 68.9918 25.0733C69.5852 25.6667 69.9186 26.4715 69.9186 27.3106C69.9186 28.1498 69.5852 28.9546 68.9918 29.548C68.3984 30.1413 67.5937 30.4747 66.7545 30.4747Z" fill="white"/>
<path d="M18.933 45.0841C22.7847 45.0841 25.8011 46.8707 25.8011 51.6738V58.9068C25.8011 63.7078 22.7847 65.4944 18.933 65.4944H13.9907C12.8453 65.4944 12.0923 64.8806 12.0923 64.1824V46.3961C12.0923 45.6979 12.8453 45.0841 13.9907 45.0841H18.933ZM16.4481 48.881V61.6975H18.933C20.496 61.6975 21.4453 60.8053 21.4453 58.9068V51.6738C21.4453 49.7754 20.496 48.881 18.933 48.881H16.4481Z" fill="white"/>
<path d="M28.3408 59.0735V51.6738C28.3408 46.8707 31.3298 45.0841 35.1815 45.0841C39.0332 45.0841 42.0518 46.8707 42.0518 51.6738V59.0735C42.0518 63.8765 39.0354 65.6632 35.1815 65.6632C31.3277 65.6632 28.3408 63.8765 28.3408 59.0735ZM37.6959 51.6738C37.6959 49.7479 36.7467 48.881 35.1815 48.881C33.6164 48.881 32.6967 49.7479 32.6967 51.6738V59.0735C32.6967 60.9993 33.6185 61.8663 35.1815 61.8663C36.7446 61.8663 37.6959 60.9993 37.6959 59.0735V51.6738Z" fill="white"/>
<path d="M51.4891 48.881C49.8966 48.881 48.9748 49.7754 48.9748 51.6738V59.0735C48.9748 60.9719 49.8966 61.8663 51.5166 61.8663C53.7504 61.8663 53.8896 60.1619 53.974 59.0735C54.0562 58.0399 55.0076 57.7614 56.1234 57.7614C57.6316 57.7614 58.3298 58.1517 58.3298 59.8265C58.3298 63.5411 55.3134 65.6632 51.3204 65.6632C47.6627 65.6632 44.6189 63.8765 44.6189 59.0735V51.6738C44.6189 46.8707 47.6627 45.0841 51.3204 45.0841C55.3134 45.0841 58.3298 47.0943 58.3298 50.6402C58.3298 52.3172 57.6316 52.7074 56.1508 52.7074C54.978 52.7074 54.0288 52.3994 53.974 51.3954C53.9466 50.6697 53.8622 48.881 51.4891 48.881Z" fill="white"/>
</svg>
