<svg width="70" height="85" viewBox="0 0 70 85" fill="none" xmlns="http://www.w3.org/2000/svg">
<path d="M59.2392 84.9219H10.9619C8.15959 84.9185 5.473 83.8038 3.49145 81.8223C1.5099 79.8407 0.395195 77.1541 0.391846 74.3518V10.6951C0.395195 7.89275 1.5099 5.20615 3.49145 3.2246C5.473 1.24306 8.15959 0.12835 10.9619 0.125H42.6236C43.0392 0.124812 43.4508 0.206494 43.8348 0.365382C44.2188 0.52427 44.5677 0.75725 44.8617 1.05102L68.8833 25.0726C69.177 25.3665 69.41 25.7155 69.5689 26.0995C69.7278 26.4835 69.8095 26.895 69.8093 27.3106V74.3497C69.8065 77.1524 68.692 79.8395 66.7104 81.8215C64.7288 83.8035 62.0419 84.9185 59.2392 84.9219ZM10.9619 6.45313C9.83723 6.45424 8.75892 6.90152 7.96364 7.6968C7.16837 8.49208 6.72109 9.57038 6.71997 10.6951V74.3518C6.72109 75.4765 7.16837 76.5548 7.96364 77.3501C8.75892 78.1454 9.83723 78.5926 10.9619 78.5938H59.2392C60.3639 78.5926 61.4422 78.1454 62.2375 77.3501C63.0328 76.5548 63.48 75.4765 63.4811 74.3518V28.6205L41.3137 6.45313H10.9619Z" fill="white"/>
<path d="M66.6451 30.4747H50.0296C47.2272 30.4713 44.5406 29.3566 42.5591 27.3751C40.5775 25.3935 39.4628 22.7069 39.4595 19.9046V3.28906C39.4595 2.4499 39.7928 1.64511 40.3862 1.05173C40.9796 0.458356 41.7844 0.125 42.6235 0.125C43.4627 0.125 44.2675 0.458356 44.8609 1.05173C45.4542 1.64511 45.7876 2.4499 45.7876 3.28906V19.9046C45.7887 21.0293 46.236 22.1076 47.0313 22.9029C47.8266 23.6982 48.9049 24.1454 50.0296 24.1466H66.6451C67.4843 24.1466 68.2891 24.4799 68.8824 25.0733C69.4758 25.6667 69.8092 26.4715 69.8092 27.3106C69.8092 28.1498 69.4758 28.9546 68.8824 29.548C68.2891 30.1413 67.4843 30.4747 66.6451 30.4747Z" fill="white"/>
<path d="M21.5595 60.0311C21.5595 56.6561 12.7001 57.2383 12.7001 50.7056C12.7001 46.5164 16.3578 44.9259 19.8467 44.9259C21.3233 44.9259 25.4049 45.2043 25.4049 47.3833C25.4049 48.1364 24.9008 49.672 23.6731 49.672C22.6669 49.672 22.1375 48.6173 19.8467 48.6173C17.866 48.6173 17.056 49.4273 17.056 50.2921C17.056 53.085 25.9154 52.5555 25.9154 59.5903C25.9154 63.6107 22.9833 65.7897 18.9354 65.7897C15.2778 65.7897 12.2065 64.0031 12.2065 62.1595C12.2065 61.2103 13.0503 59.8139 14.105 59.8139C15.417 59.8139 16.2544 61.8811 18.8511 61.8811C20.1357 61.8663 21.5595 61.3621 21.5595 60.0311Z" fill="white"/>
<path d="M26.7252 47.1787C26.6944 47.0786 26.6752 46.9753 26.6682 46.8707C26.6682 45.8393 28.2608 45.0841 29.461 45.0841C30.1592 45.0841 30.7267 45.3077 30.8849 45.8941L34.7935 60.2189L38.6748 45.8983C38.8414 45.3119 39.4004 45.0883 40.0986 45.0883C41.2988 45.0883 42.8914 45.8435 42.8914 46.875C42.8844 46.9795 42.8653 47.0828 42.8345 47.1829L37.6327 64.2119C37.3269 65.1886 36.0697 65.6632 34.7851 65.6632C33.5005 65.6632 32.2538 65.1886 31.9374 64.2119L26.7252 47.1787Z" fill="white"/>
<path d="M51.1561 48.881C49.5635 48.881 48.6417 49.7754 48.6417 51.6738V59.0735C48.6417 60.9719 49.5635 61.8663 51.1266 61.8663C52.6896 61.8663 53.641 60.9719 53.641 59.0735V58.1327H51.9935C51.1498 58.1327 50.6815 57.3227 50.6815 56.4579C50.6815 55.6479 51.1561 54.7809 51.9935 54.7809H56.6848C57.5285 54.7809 57.9968 55.4243 57.9968 56.1499V59.0819C57.9968 63.885 54.9804 65.6716 51.1266 65.6716C47.2728 65.6716 44.2859 63.885 44.2859 59.0819V51.6738C44.2859 46.8707 47.3297 45.0841 50.9874 45.0841C54.9804 45.0841 57.9968 47.0943 57.9968 50.6402C57.9968 52.3172 57.2986 52.7074 55.8178 52.7074C54.645 52.7074 53.6684 52.3994 53.641 51.3954C53.6135 50.3913 53.5292 48.881 51.1561 48.881Z" fill="white"/>
</svg>
